HIERARCHY
ROOT Hips
{
    OFFSET 0.0 0.0 0.0
    CHANNELS 6 Xposition Yposition Zposition Zrotation Xrotation Yrotation
    JOINT LeftUpLeg
    {
        OFFSET 13.192130300830758 0.0 0.0
        CHANNELS 3 Zrotation Xrotation Yrotation
        JOINT LeftLeg
        {
            OFFSET 0.0 0.0 -47.019884620730636
            CHANNELS 3 Zrotation Xrotation Yrotation
            JOINT LeftFoot
            {
                OFFSET 0.0 0.0 -41.71526122298722
                CHANNELS 3 Zrotation Xrotation Yrotation
                JOINT LeftToeBase
                {
                    OFFSET 0.0 -11.748369727399442 0.0
                    CHANNELS 3 Zrotation Xrotation Yrotation
                    End Site
                    {
                        OFFSET 0 0 0
                    }
                }
            }
        }
    }
    JOINT RightUpLeg
    {
        OFFSET -13.192130300830758 0.0 0.0
        CHANNELS 3 Zrotation Xrotation Yrotation
        JOINT RightLeg
        {
            OFFSET 0.0 0.0 -47.019884620730636
            CHANNELS 3 Zrotation Xrotation Yrotation
            JOINT RightFoot
            {
                OFFSET 0.0 0.0 -41.71526122298722
                CHANNELS 3 Zrotation Xrotation Yrotation
                JOINT RightToeBase
                {
                    OFFSET 0.0 -11.748369727399442 0.0
                    CHANNELS 3 Zrotation Xrotation Yrotation
                    End Site
                    {
                        OFFSET 0 0 0
                    }
                }
            }
        }
    }
    JOINT Spine
    {
        OFFSET 0.0 0.0 11.85823272692818
        CHANNELS 3 Zrotation Xrotation Yrotation
        JOINT Spine1
        {
            OFFSET 0.0 0.0 11.761648042143339
            CHANNELS 3 Zrotation Xrotation Yrotation
            JOINT Spine2
            {
                OFFSET 0.0 0.0 11.76164804214334
                CHANNELS 3 Zrotation Xrotation Yrotation
                JOINT Spine3
                {
                    OFFSET 0.0 0.0 11.761648042143339
                    CHANNELS 3 Zrotation Xrotation Yrotation
                    JOINT Spine4
                    {
                        OFFSET 0.0 0.0 11.761648042143342
                        CHANNELS 3 Zrotation Xrotation Yrotation
                        JOINT RightShoulder
                        {
                            OFFSET -22.581153688193016 0.0 0.0
                            CHANNELS 3 Zrotation Xrotation Yrotation
                            JOINT RightArm
                            {
                                OFFSET -33.47462777269877 0.0 0.0
                                CHANNELS 3 Zrotation Xrotation Yrotation
                                JOINT RightForeArm
                                {
                                    OFFSET -30.22523189065788 0.0 0.0
                                    CHANNELS 3 Zrotation Xrotation Yrotation
                                    JOINT RightHand
                                    {
                                        OFFSET -9.275842910336765 0.0 0.0
                                        CHANNELS 3 Zrotation Xrotation Yrotation
                                        End Site
                                        {
                                            OFFSET 0 0 0
                                        }
                                    }
                                }
                            }
                        }
                        JOINT LeftShoulder
                        {
                            OFFSET 22.581153688193016 0.0 0.0
                            CHANNELS 3 Zrotation Xrotation Yrotation
                            JOINT LeftArm
                            {
                                OFFSET 33.47462777269877 0.0 0.0
                                CHANNELS 3 Zrotation Xrotation Yrotation
                                JOINT LeftForeArm
                                {
                                    OFFSET 30.22523189065788 0.0 0.0
                                    CHANNELS 3 Zrotation Xrotation Yrotation
                                    JOINT LeftHand
                                    {
                                        OFFSET 9.275842910336765 0.0 0.0
                                        CHANNELS 3 Zrotation Xrotation Yrotation
                                        End Site
                                        {
                                            OFFSET 0 0 0
                                        }
                                    }
                                }
                            }
                        }
                        JOINT Neck
                        {
                            OFFSET 0.0 0.0 11.761647982014924
                            CHANNELS 3 Zrotation Xrotation Yrotation
                            JOINT Head
                            {
                                OFFSET 0.0 0.0 26.277827171110044
                                CHANNELS 3 Zrotation Xrotation Yrotation
                                End Site
                                {
                                    OFFSET 0 0 0
                                }
                            }
                        }
                    }
                }
            }
        }
    }
}
MOTION
Frames: 4
Frame Time: 0.03333333333333333
58.19624791145325 -44.27594282627106 480.3361169815064 -177.01902954075803 -65.60711982944241 -179.6171519976575 -143.30907579414685 26.24686436479331 59.46781404376315 116.45165731272542 -23.471073960380448 93.73421600723465 163.74875602281986 4.770832022195275e-15 59.15405958083383 -9.93923337957349e-17 2.758691436281349e-33 -3.1805546814635168e-15 155.5029882398213 21.71357680530807 -65.8610100740737 -131.9629706529875 -17.220415544133076 -91.59628290083216 111.66251762211405 3.1805546814635168e-15 -47.1784670863834 0.0 0.0 0.0 -0.23318555450005005 2.3583165028408377 -0.0602127111129057 -9.93923337957349e-17 0.0 0.0 -9.93923337957349e-17 0.0 0.0 -9.93923337957349e-17 0.0 0.0 -9.93923337957349e-17 0.0 0.0 -156.94962601143567 -38.37601034671772 -73.38325818759151 22.58018450146098 -1.3721381235920801e-14 -3.747300176675254e-15 -1.5422146997001303e-15 -29.808007062031926 1.2754651188952489e-14 0.0 0.0 0.0 63.1670267407958 48.86224926202333 47.41853249345038 -7.682184628270897 -7.454131850062785e-15 -7.672832253282365e-15 6.3351711555398575e-15 38.54526357212485 1.154230242993747e-15 0.0 0.0 3.1805546814635168e-15 3.323880555862155 7.4007256330186e-15 1.8300853099355708e-16 1.987846675914698e-16 -7.765026077791789e-19 1.3470173028717525e-36
58.19624791145325 -44.27594282627106 480.3361169815064 -177.01902954075803 -65.60711982944241 -179.6171519976575 -143.30907579414685 26.24686436479331 59.46781404376315 116.45165731272542 -23.471073960380448 93.73421600723465 163.74875602281986 4.770832022195275e-15 59.15405958083383 -9.93923337957349e-17 2.758691436281349e-33 -3.1805546814635168e-15 155.5029882398213 21.71357680530807 -65.8610100740737 -131.9629706529875 -17.220415544133076 -91.59628290083216 111.66251762211405 3.1805546814635168e-15 -47.1784670863834 0.0 0.0 0.0 -0.23318555450005005 2.3583165028408377 -0.0602127111129057 -9.93923337957349e-17 0.0 0.0 -9.93923337957349e-17 0.0 0.0 -9.93923337957349e-17 0.0 0.0 -9.93923337957349e-17 0.0 0.0 -156.94962601143567 -38.37601034671772 -73.38325818759151 22.58018450146098 -1.3721381235920801e-14 -3.747300176675254e-15 -1.5422146997001303e-15 -29.808007062031926 1.2754651188952489e-14 0.0 0.0 0.0 63.1670267407958 48.86224926202333 47.41853249345038 -7.682184628270897 -7.454131850062785e-15 -7.672832253282365e-15 6.3351711555398575e-15 38.54526357212485 1.154230242993747e-15 0.0 0.0 3.1805546814635168e-15 3.323880555862155 7.4007256330186e-15 1.8300853099355708e-16 1.987846675914698e-16 -7.765026077791789e-19 1.3470173028717525e-36
58.19624791145325 -44.27594282627106 480.3361169815064 -177.01902954075803 -65.60711982944241 -179.6171519976575 -143.30907579414685 26.24686436479331 59.46781404376315 116.45165731272542 -23.471073960380448 93.73421600723465 163.74875602281986 4.770832022195275e-15 59.15405958083383 -9.93923337957349e-17 2.758691436281349e-33 -3.1805546814635168e-15 155.5029882398213 21.71357680530807 -65.8610100740737 -131.9629706529875 -17.220415544133076 -91.59628290083216 111.66251762211405 3.1805546814635168e-15 -47.1784670863834 0.0 0.0 0.0 -0.23318555450005005 2.3583165028408377 -0.0602127111129057 -9.93923337957349e-17 0.0 0.0 -9.93923337957349e-17 0.0 0.0 -9.93923337957349e-17 0.0 0.0 -9.93923337957349e-17 0.0 0.0 -156.94962601143567 -38.37601034671772 -73.38325818759151 22.58018450146098 -1.3721381235920801e-14 -3.747300176675254e-15 -1.5422146997001303e-15 -29.808007062031926 1.2754651188952489e-14 0.0 0.0 0.0 63.1670267407958 48.86224926202333 47.41853249345038 -7.682184628270897 -7.454131850062785e-15 -7.672832253282365e-15 6.3351711555398575e-15 38.54526357212485 1.154230242993747e-15 0.0 0.0 3.1805546814635168e-15 3.323880555862155 7.4007256330186e-15 1.8300853099355708e-16 1.987846675914698e-16 -7.765026077791789e-19 1.3470173028717525e-36
58.191991138458256 -44.35437791347504 480.404478263855 -175.88264698099843 -65.58747251755858 -178.56052489401793 -143.11343866607842 26.15685334317224 59.89601383658855 116.57016509528636 -24.236301460820783 94.66280368135993 165.71184568636292 6.3611093629270335e-15 58.78104004037312 -1.1927080055488188e-15 0.0 0.0 156.38345158545062 21.12203046314411 -66.01990776515193 -132.55446522247675 -16.92773176567947 -91.67074453807017 103.57902974562899 -3.1805546814635168e-15 -55.410231922522044 0.0 6.3611093629270335e-15 0.0 -0.2501115086554987 2.3612436614216263 -0.04773668071188177 -9.939233379573487e-17 -6.361109362927032e-15 -9.939233379573487e-17 -9.939233379573487e-17 -6.361109362927032e-15 -9.939233379573487e-17 -9.939233379573487e-17 -6.361109362927032e-15 -9.939233379573487e-17 -9.939233379573487e-17 -6.361109362927032e-15 -9.939233379573487e-17 -86.0675412231282 10.836791709370823 -35.7349341303697 11.405947952337927 -6.1715964174446896e-15 2.2145184595633247e-15 180.0 -67.37234328062625 -180.0 0.0 -6.361109362927035e-15 0.0 64.55426058178068 48.24933995164408 46.78243000392747 -7.70931163200906 -2.1054467485863508e-14 4.956921692847072e-15 -1.7197616588084676e-16 38.405380300085376 1.016372936193892e-14 0.0 0.0 -1.5902773407317584e-15 3.825393762786233 -1.426727041666786e-14 4.764592691391196e-16 3.975693351829396e-16 -6.3611093629270335e-15 2.2069531490250793e-32
